<?xml version="1.0" encoding="UTF-8" standalone="no"?>
<!-- Created with Inkscape (http://www.inkscape.org/) -->

<svg
   xmlns:dc="http://purl.org/dc/elements/1.1/"
   xmlns:cc="http://creativecommons.org/ns#"
   xmlns:rdf="http://www.w3.org/1999/02/22-rdf-syntax-ns#"
   xmlns:svg="http://www.w3.org/2000/svg"
   xmlns="http://www.w3.org/2000/svg"
   xmlns:sodipodi="http://sodipodi.sourceforge.net/DTD/sodipodi-0.dtd"
   xmlns:inkscape="http://www.inkscape.org/namespaces/inkscape"
   width="209.72726mm"
   height="166.64911mm"
   viewBox="0 0 209.72727 166.64911"
   version="1.1"
   id="svg8"
   inkscape:version="0.92.1 r15371"
   sodipodi:docname="OpenPnpLCDEnclosure.svg">
  <defs
     id="defs2" />
  <sodipodi:namedview
     id="base"
     pagecolor="#ffffff"
     bordercolor="#666666"
     borderopacity="1.0"
     inkscape:pageopacity="0.0"
     inkscape:pageshadow="2"
     inkscape:zoom="1.979899"
     inkscape:cx="178.54723"
     inkscape:cy="176.7102"
     inkscape:document-units="mm"
     inkscape:current-layer="layer1"
     showgrid="false"
     inkscape:window-width="1920"
     inkscape:window-height="1027"
     inkscape:window-x="-8"
     inkscape:window-y="1192"
     inkscape:window-maximized="1"
     inkscape:measure-start="676.352,48.0931"
     inkscape:measure-end="578.238,0.143806"
     fit-margin-top="0"
     fit-margin-left="0"
     fit-margin-right="0"
     fit-margin-bottom="0" />
  <metadata
     id="metadata5">
    <rdf:RDF>
      <cc:Work
         rdf:about="">
        <dc:format>image/svg+xml</dc:format>
        <dc:type
           rdf:resource="http://purl.org/dc/dcmitype/StillImage" />
        <dc:title></dc:title>
      </cc:Work>
    </rdf:RDF>
  </metadata>
  <g
     inkscape:label="Layer 1"
     inkscape:groupmode="layer"
     id="layer1"
     transform="translate(-31.711997,-66.171035)">
    <path
       style="opacity:0.77300002;fill:none;fill-opacity:1;stroke:#ff0000;stroke-width:0.076;stroke-linecap:round;stroke-linejoin:round;stroke-miterlimit:0;stroke-dasharray:none;stroke-dashoffset:0;stroke-opacity:1;paint-order:markers fill stroke"
       d="M 31.749998,66.434525 H 184.70439 v 9.506277 l -3.94711,-0.01752 v 9.924004 l 3.94711,-0.01752 V 104.0041 l -4.08073,0.0892 v 9.92399 l 4.08073,-0.0574 v 18.10751 l -4.2782,0.0148 v 9.924 l 4.2782,0.15068 v 16.39069 l -9.92399,-0.18225 0.0905,3.94927 -33.02507,0.0849 v -3.924 h -9.924 l 0.14281,3.81389 H 89.920333 l 0.04831,-4.00288 H 80.04464 l 0.04831,4.00288 H 41.633875 l 0.04012,-3.924 h -9.923998 v -16.28643 l 3.944003,0.0111 v -9.92399 l -3.944003,-0.10913 v -18.208 l 3.959087,0.0791 v -9.924 l -3.959086,-0.0174 V 85.843769 l 3.959086,0.02101 V 75.940804 L 31.749998,75.82743 Z"
       id="rect4485"
       inkscape:connector-curvature="0"
       sodipodi:nodetypes="ccccccccccccccccccccccccccccccccccccccccc" />
    <circle
       style="opacity:0.77300002;fill:none;fill-opacity:1;stroke:#ff0000;stroke-width:0.07599999;stroke-linecap:round;stroke-linejoin:round;stroke-miterlimit:0;stroke-dasharray:none;stroke-dashoffset:0;stroke-opacity:1;paint-order:markers fill stroke"
       id="path4487"
       cx="53.141296"
       cy="95.870621"
       r="1.612" />
    <circle
       style="opacity:0.77300002;fill:none;fill-opacity:1;stroke:#ff0000;stroke-width:0.07599999;stroke-linecap:round;stroke-linejoin:round;stroke-miterlimit:0;stroke-dasharray:none;stroke-dashoffset:0;stroke-opacity:1;paint-order:markers fill stroke"
       id="path4487-4"
       cx="124.56052"
       cy="95.852127"
       r="1.612" />
    <circle
       style="opacity:0.77300002;fill:none;fill-opacity:1;stroke:#ff0000;stroke-width:0.07599999;stroke-linecap:round;stroke-linejoin:round;stroke-miterlimit:0;stroke-dasharray:none;stroke-dashoffset:0;stroke-opacity:1;paint-order:markers fill stroke"
       id="path4487-8"
       cx="53.176743"
       cy="77.320526"
       r="1.612" />
    <circle
       style="opacity:0.77300002;fill:none;fill-opacity:1;stroke:#ff0000;stroke-width:0.076;stroke-linecap:round;stroke-linejoin:round;stroke-miterlimit:0;stroke-dasharray:none;stroke-dashoffset:0;stroke-opacity:1;paint-order:markers fill stroke"
       id="path4519"
       cx="164.62337"
       cy="111.06071"
       r="9.9619999" />
    <path
       style="opacity:0.77300002;fill:none;fill-opacity:1;stroke:#ff0000;stroke-width:0.07599999;stroke-linecap:round;stroke-linejoin:round;stroke-miterlimit:0;stroke-dasharray:none;stroke-dashoffset:0;stroke-opacity:1;paint-order:markers fill stroke"
       d="m 31.749997,163.65711 h 9.923998 l -0.13984,3.92395 h 38.620447 l -0.109962,-4.00283 h 9.924003 l -0.04831,4.00288 42.218197,-5e-5 -0.21666,-3.81389 9.92396,5e-5 -0.21924,3.81384 h 33.34188 l -0.18807,-3.92401 9.92399,0.18225 -9e-5,17.15633 -4.01083,-0.0521 v 9.924 l 4.01075,0.15068 -8e-5,10.42351 -4.01366,-0.0843 v 9.92399 l 4.01359,-0.0175 -8e-5,21.51824 H 31.749998 v -21.58506 l 3.940001,0.0843 v -9.92399 l -3.940001,0.0175 -1e-6,-10.35669 3.943023,-0.15068 v -9.924 l -3.943023,-0.0816 z"
       id="rect4563"
       inkscape:connector-curvature="0"
       sodipodi:nodetypes="ccccccccccccccccccccccccccccccccc" />
    <rect
       style="opacity:0.77300002;fill:none;fill-opacity:1;stroke:#ff0000;stroke-width:0.07600002;stroke-linecap:round;stroke-linejoin:round;stroke-miterlimit:0;stroke-dasharray:none;stroke-dashoffset:0;stroke-opacity:1;paint-order:markers fill stroke"
       id="rect4565"
       width="27.664982"
       height="18.606983"
       x="58.756298"
       y="73.756912" />
    <rect
       style="opacity:0.77300002;fill:none;fill-opacity:1;stroke:#ff0000;stroke-width:0.076;stroke-linecap:round;stroke-linejoin:round;stroke-miterlimit:0;stroke-dasharray:none;stroke-dashoffset:0;stroke-opacity:1;paint-order:markers fill stroke"
       id="rect4565-3"
       width="28.064732"
       height="18.323502"
       x="89.164368"
       y="73.851402" />
    <path
       style="opacity:0.77300002;fill:none;fill-opacity:1;stroke:#ff0000;stroke-width:0.076;stroke-linecap:round;stroke-linejoin:round;stroke-miterlimit:0;stroke-dasharray:none;stroke-dashoffset:0;stroke-opacity:1;paint-order:markers fill stroke"
       d="m 190.68418,66.209029 -0.0172,9.970709 -4.08887,-0.256456 v 9.924004 l 4.07254,-0.179278 -0.0322,18.179642 -4.17392,0.24565 v 9.92399 l 4.15792,-0.15174 -0.0315,18.30722 -4.32388,-0.0906 v 9.924 l 4.30663,0.18938 -0.0281,16.35199 9.98958,-7.97655 2.67262,3.2544 7.39724,-5.99919 -2.60191,-3.14221 8.4963,-6.69781 2.50785,3.15043 7.8355,-6.08787 -2.44502,-3.28895 17.0235,-13.3525 z"
       id="rect4521-1"
       inkscape:connector-curvature="0"
       sodipodi:nodetypes="cccccccccccccccccccccccc" />
  </g>
</svg>
