<?xml version="1.0" encoding="UTF-8" standalone="no"?>
<!-- Created with Inkscape (http://www.inkscape.org/) -->

<svg
   xmlns:dc="http://purl.org/dc/elements/1.1/"
   xmlns:cc="http://creativecommons.org/ns#"
   xmlns:rdf="http://www.w3.org/1999/02/22-rdf-syntax-ns#"
   xmlns:svg="http://www.w3.org/2000/svg"
   xmlns="http://www.w3.org/2000/svg"
   xmlns:sodipodi="http://sodipodi.sourceforge.net/DTD/sodipodi-0.dtd"
   xmlns:inkscape="http://www.inkscape.org/namespaces/inkscape"
   width="400.254mm"
   height="240.254mm"
   viewBox="0 0 400.254 240.254"
   version="1.1"
   id="svg5262"
   inkscape:version="0.92.1 r15371"
   sodipodi:docname="PumpCase.svg">
  <defs
     id="defs5256" />
  <sodipodi:namedview
     id="base"
     pagecolor="#ffffff"
     bordercolor="#666666"
     borderopacity="1.0"
     inkscape:pageopacity="0.0"
     inkscape:pageshadow="2"
     inkscape:zoom="1.979899"
     inkscape:cx="1192.6347"
     inkscape:cy="455.26473"
     inkscape:document-units="mm"
     inkscape:current-layer="layer1"
     showgrid="false"
     fit-margin-top="0"
     fit-margin-left="0"
     fit-margin-right="0"
     fit-margin-bottom="0"
     inkscape:window-width="1920"
     inkscape:window-height="1027"
     inkscape:window-x="-8"
     inkscape:window-y="1192"
     inkscape:window-maximized="1" />
  <metadata
     id="metadata5259">
    <rdf:RDF>
      <cc:Work
         rdf:about="">
        <dc:format>image/svg+xml</dc:format>
        <dc:type
           rdf:resource="http://purl.org/dc/dcmitype/StillImage" />
        <dc:title />
      </cc:Work>
    </rdf:RDF>
  </metadata>
  <g
     inkscape:label="Layer 1"
     inkscape:groupmode="layer"
     id="layer1"
     transform="translate(184.252,-33.242049)">
    <g
       style="stroke:#ff0000;stroke-opacity:1"
       transform="matrix(0.28222199,0,0,0.28222199,-184.125,33.369049)"
       id="g5809">
      <path
         inkscape:connector-curvature="0"
         id="polygon5807"
         d="M 113.38592,0 V 14.17324 H 141.7324 V 0 h 28.34648 v 14.17324 h 28.34648 V 0 h 28.34648 v 14.17324 h 28.34648 V 0 h 28.34648 v 14.17324 h 28.34648 V 0 h 28.34648 v 14.17324 h 42.51972 V 0 h 42.51972 v 35.4331 h -14.17324 v 35.4331 h 14.17324 v 28.34648 h -14.17324 v 28.34648 h 14.17324 v 28.34648 h -14.17324 v 28.34648 h 14.17324 v 28.34648 h -14.17324 v 35.4331 h 14.17324 v 35.4331 H 382.67748 V 269.29156 H 340.15776 V 283.4648 H 311.81128 V 269.29156 H 283.4648 V 283.4648 H 255.11832 V 269.29156 H 226.77184 V 283.4648 H 198.42536 V 269.29156 H 170.07888 V 283.4648 H 141.7324 V 269.29156 H 113.38592 V 283.4648 H 85.03944 V 269.29156 H 42.51972 V 283.4648 H 0 V 248.0317 H 14.17324 V 212.5986 H 0 V 184.25212 H 14.17324 V 155.90564 H 0 V 127.55916 H 14.17324 V 99.21268 H 0 V 70.8662 H 14.17324 V 35.4331 H 0 V 0 H 42.51972 V 14.17324 H 85.03944 V 0 Z"
         style="fill:none;stroke:#ff0000;stroke-width:0.90000075;stroke-opacity:1" />
    </g>
    <g
       style="stroke:#ff0000;stroke-opacity:1"
       transform="matrix(0.28222199,0,0,0.28222199,-64.125,33.369049)"
       id="g5813">
      <path
         inkscape:connector-curvature="0"
         id="polygon5811"
         d="M 113.38592,0 V 14.17324 H 141.7324 V 0 h 28.34648 v 14.17324 h 28.34648 V 0 h 28.34648 v 14.17324 h 28.34648 V 0 h 28.34648 v 14.17324 h 28.34648 V 0 h 28.34648 v 14.17324 h 42.51972 V 0 h 42.51972 v 35.4331 h -14.17324 v 35.4331 h 14.17324 v 28.34648 h -14.17324 v 28.34648 h 14.17324 v 28.34648 h -14.17324 v 28.34648 h 14.17324 v 28.34648 h -14.17324 v 35.4331 h 14.17324 v 35.4331 H 382.67748 V 269.29156 H 340.15776 V 283.4648 H 311.81128 V 269.29156 H 283.4648 V 283.4648 H 255.11832 V 269.29156 H 226.77184 V 283.4648 H 198.42536 V 269.29156 H 170.07888 V 283.4648 H 141.7324 V 269.29156 H 113.38592 V 283.4648 H 85.03944 V 269.29156 H 42.51972 V 283.4648 H 0 V 248.0317 H 14.17324 V 212.5986 H 0 V 184.25212 H 14.17324 V 155.90564 H 0 V 127.55916 H 14.17324 V 99.21268 H 0 V 70.8662 H 14.17324 V 35.4331 H 0 V 0 H 42.51972 V 14.17324 H 85.03944 V 0 Z"
         style="fill:none;stroke:#ff0000;stroke-width:0.90000075;stroke-opacity:1" />
    </g>
    <g
       style="stroke:#ff0000;stroke-opacity:1"
       transform="matrix(0.28222199,0,0,0.28222199,55.875,33.369049)"
       id="g5817">
      <path
         inkscape:connector-curvature="0"
         id="polygon5815"
         d="m 99.21268,0 v 14.17324 h 28.34648 V 0 h 28.34648 v 14.17324 h 28.34648 V 0 h 28.34648 v 14.17324 h 28.34648 V 0 h 28.34648 v 14.17324 h 28.34648 V 0 h 28.34648 V 14.17324 H 354.331 V 0 h 28.34648 v 14.17324 h 28.34648 V 0 h 28.34648 v 14.17324 h 28.34648 V 0 h 28.34648 v 14.17324 h 35.4331 V 0 h 21.25986 v 35.4331 h 14.17324 v 35.4331 h -14.17324 v 28.34648 h 14.17324 v 28.34648 h -14.17324 v 28.34648 h 14.17324 v 28.34648 h -14.17324 v 28.34648 h 14.17324 v 35.4331 h -14.17324 v 35.4331 H 531.4965 V 269.29156 H 496.0634 V 283.4648 H 467.71692 V 269.29156 H 439.37044 V 283.4648 H 411.02396 V 269.29156 H 382.67748 V 283.4648 H 354.331 V 269.29156 H 325.98452 V 283.4648 H 297.63804 V 269.29156 H 269.29156 V 283.4648 H 240.94508 V 269.29156 H 212.5986 V 283.4648 H 184.25212 V 269.29156 H 155.90564 V 283.4648 H 127.55916 V 269.29156 H 99.21268 V 283.4648 H 70.8662 V 269.29156 H 35.4331 V 283.4648 H 14.17324 V 248.0317 H 0 V 212.5986 H 14.17324 V 184.25212 H 0 V 155.90564 H 14.17324 V 127.55916 H 0 V 99.21268 H 14.17324 V 70.8662 H 0 V 35.4331 H 14.17324 V 0 H 35.4331 V 14.17324 H 70.8662 V 0 Z"
         style="fill:none;stroke:#ff0000;stroke-width:0.90000075;stroke-opacity:1" />
    </g>
    <g
       style="stroke:#ff0000;stroke-opacity:1"
       transform="matrix(0.28222199,0,0,0.28222199,55.875,113.36905)"
       id="g5821">
      <path
         inkscape:connector-curvature="0"
         id="polygon5819"
         d="m 99.21268,0 v 14.17324 h 28.34648 V 0 h 28.34648 v 14.17324 h 28.34648 V 0 h 28.34648 v 14.17324 h 28.34648 V 0 h 28.34648 v 14.17324 h 28.34648 V 0 h 28.34648 V 14.17324 H 354.331 V 0 h 28.34648 v 14.17324 h 28.34648 V 0 h 28.34648 v 14.17324 h 28.34648 V 0 h 28.34648 v 14.17324 h 35.4331 V 0 h 21.25986 v 35.4331 h 14.17324 v 35.4331 h -14.17324 v 28.34648 h 14.17324 v 28.34648 h -14.17324 v 28.34648 h 14.17324 v 28.34648 h -14.17324 v 28.34648 h 14.17324 v 35.4331 h -14.17324 v 35.4331 H 531.4965 V 269.29156 H 496.0634 V 283.4648 H 467.71692 V 269.29156 H 439.37044 V 283.4648 H 411.02396 V 269.29156 H 382.67748 V 283.4648 H 354.331 V 269.29156 H 325.98452 V 283.4648 H 297.63804 V 269.29156 H 269.29156 V 283.4648 H 240.94508 V 269.29156 H 212.5986 V 283.4648 H 184.25212 V 269.29156 H 155.90564 V 283.4648 H 127.55916 V 269.29156 H 99.21268 V 283.4648 H 70.8662 V 269.29156 H 35.4331 V 283.4648 H 14.17324 V 248.0317 H 0 V 212.5986 H 14.17324 V 184.25212 H 0 V 155.90564 H 14.17324 V 127.55916 H 0 V 99.21268 H 14.17324 V 70.8662 H 0 V 35.4331 H 14.17324 V 0 H 35.4331 V 14.17324 H 70.8662 V 0 Z"
         style="fill:none;stroke:#ff0000;stroke-width:0.90000075;stroke-opacity:1" />
    </g>
    <g
       style="stroke:#ff0000;stroke-opacity:1"
       transform="matrix(0.28222199,0,0,0.28222199,-184.125,113.36905)"
       id="g5825">
      <path
         inkscape:connector-curvature="0"
         id="polygon5823"
         d="M 113.38592,14.17324 V 0 h 28.34648 v 14.17324 h 28.34648 V 0 h 28.34648 v 14.17324 h 28.34648 V 0 h 28.34648 V 14.17324 H 283.4648 V 0 h 28.34648 v 14.17324 h 28.34648 V 0 h 42.51972 v 14.17324 h 28.34648 V 35.4331 h 14.17324 v 35.4331 h -14.17324 v 28.34648 h 14.17324 v 28.34648 h -14.17324 v 28.34648 h 14.17324 v 28.34648 h -14.17324 v 28.34648 h 14.17324 v 28.34648 h -14.17324 v 28.34648 h 14.17324 v 28.34648 h -14.17324 v 28.34648 H 425.1972 V 354.331 h -14.17324 v 28.34648 h 14.17324 v 28.34648 h -14.17324 v 28.34648 h 14.17324 v 28.34648 h -14.17324 v 28.34648 h 14.17324 v 35.4331 h -14.17324 v 21.25986 H 382.67748 V 566.9296 H 340.15776 V 552.75636 H 311.81128 V 566.9296 H 283.4648 V 552.75636 H 255.11832 V 566.9296 H 226.77184 V 552.75636 H 198.42536 V 566.9296 H 170.07888 V 552.75636 H 141.7324 V 566.9296 H 113.38592 V 552.75636 H 85.03944 V 566.9296 H 42.51972 V 552.75636 H 14.17324 V 531.4965 H 0 V 496.0634 H 14.17324 V 467.71692 H 0 V 439.37044 H 14.17324 V 411.02396 H 0 V 382.67748 H 14.17324 V 354.331 H 0 V 325.98452 H 14.17324 V 297.63804 H 0 V 269.29156 H 14.17324 V 240.94508 H 0 V 212.5986 H 14.17324 V 184.25212 H 0 V 155.90564 H 14.17324 V 127.55916 H 0 V 99.21268 H 14.17324 V 70.8662 H 0 V 35.4331 H 14.17324 V 14.17324 H 42.51972 V 0 h 42.51972 v 14.17324 z"
         style="fill:none;stroke:#ff0000;stroke-width:0.90000075;stroke-opacity:1" />
    </g>
    <g
       style="stroke:#ff0000;stroke-opacity:1"
       transform="matrix(0.28222199,0,0,0.28222199,-64.125,113.36905)"
       id="g5829">
      <path
         inkscape:connector-curvature="0"
         id="polygon5827"
         d="M 113.38592,14.17324 V 0 h 28.34648 v 14.17324 h 28.34648 V 0 h 28.34648 v 14.17324 h 28.34648 V 0 h 28.34648 V 14.17324 H 283.4648 V 0 h 28.34648 v 14.17324 h 28.34648 V 0 h 42.51972 v 14.17324 h 28.34648 V 35.4331 h 14.17324 v 35.4331 h -14.17324 v 28.34648 h 14.17324 v 28.34648 h -14.17324 v 28.34648 h 14.17324 v 28.34648 h -14.17324 v 28.34648 h 14.17324 v 28.34648 h -14.17324 v 28.34648 h 14.17324 v 28.34648 h -14.17324 v 28.34648 H 425.1972 V 354.331 h -14.17324 v 28.34648 h 14.17324 v 28.34648 h -14.17324 v 28.34648 h 14.17324 v 28.34648 h -14.17324 v 28.34648 h 14.17324 v 35.4331 h -14.17324 v 21.25986 H 382.67748 V 566.9296 H 340.15776 V 552.75636 H 311.81128 V 566.9296 H 283.4648 V 552.75636 H 255.11832 V 566.9296 H 226.77184 V 552.75636 H 198.42536 V 566.9296 H 170.07888 V 552.75636 H 141.7324 V 566.9296 H 113.38592 V 552.75636 H 85.03944 V 566.9296 H 42.51972 V 552.75636 H 14.17324 V 531.4965 H 0 V 496.0634 H 14.17324 V 467.71692 H 0 V 439.37044 H 14.17324 V 411.02396 H 0 V 382.67748 H 14.17324 V 354.331 H 0 V 325.98452 H 14.17324 V 297.63804 H 0 V 269.29156 H 14.17324 V 240.94508 H 0 V 212.5986 H 14.17324 V 184.25212 H 0 V 155.90564 H 14.17324 V 127.55916 H 0 V 99.21268 H 14.17324 V 70.8662 H 0 V 35.4331 H 14.17324 V 14.17324 H 42.51972 V 0 h 42.51972 v 14.17324 z"
         style="fill:none;stroke:#ff0000;stroke-width:0.90000075;stroke-opacity:1" />
    </g>
    <path
       style="fill:none;stroke:#0000ff;stroke-width:0.20304769px;stroke-linecap:butt;stroke-linejoin:miter;stroke-opacity:1"
       d="m 116.63412,122.22285 0.0178,10.58703 h -5.15586 v -7.41259 l -6.7334,0.0173 v 7.39525 h -5.772877 v -10.58703 z"
       id="path5859"
       inkscape:connector-curvature="0"
       sodipodi:nodetypes="ccccccccc" />
    <path
       style="fill:none;stroke:#0000ff;stroke-width:0.20304769px;stroke-linecap:butt;stroke-linejoin:miter;stroke-opacity:1"
       d="m 149.44266,122.22285 0.0178,10.58703 h -5.15586 v -7.41259 l -6.7334,0.0173 v 7.39525 h -5.77288 v -10.58703 z"
       id="path5859-8"
       inkscape:connector-curvature="0"
       sodipodi:nodetypes="ccccccccc" />
    <path
       style="fill:none;stroke:#0000ff;stroke-width:0.20304769px;stroke-linecap:butt;stroke-linejoin:miter;stroke-opacity:1"
       d="m 116.63412,186.25602 0.0178,-10.58703 h -5.15586 v 7.41259 l -6.73339,-0.0173 v -7.39525 h -5.77288 v 10.58703 z"
       id="path5859-0"
       inkscape:connector-curvature="0"
       sodipodi:nodetypes="ccccccccc" />
    <path
       style="fill:none;stroke:#0000ff;stroke-width:0.20304769px;stroke-linecap:butt;stroke-linejoin:miter;stroke-opacity:1"
       d="m 149.44267,186.25602 0.0178,-10.58703 h -5.15587 v 7.41259 l -6.7334,-0.0173 v -7.39525 h -5.77288 v 10.58703 z"
       id="path5859-8-1"
       inkscape:connector-curvature="0"
       sodipodi:nodetypes="ccccccccc" />
    <path
       style="fill:none;stroke:#0000ff;stroke-width:0.20304769px;stroke-linecap:butt;stroke-linejoin:miter;stroke-opacity:1"
       d="m 116.66564,41.697895 0.0178,10.58703 h -5.15586 v -7.412593 l -6.7334,0.0173 v 7.395253 h -5.772876 v -10.58703 z"
       id="path5859-9"
       inkscape:connector-curvature="0"
       sodipodi:nodetypes="ccccccccc" />
    <path
       style="fill:none;stroke:#0000ff;stroke-width:0.20304769px;stroke-linecap:butt;stroke-linejoin:miter;stroke-opacity:1"
       d="m 149.47419,41.697895 0.0178,10.58703 h -5.15587 v -7.412593 l -6.7334,0.0173 v 7.395253 h -5.77288 v -10.58703 z"
       id="path5859-8-2"
       inkscape:connector-curvature="0"
       sodipodi:nodetypes="ccccccccc" />
    <path
       style="fill:none;stroke:#0000ff;stroke-width:0.20304769px;stroke-linecap:butt;stroke-linejoin:miter;stroke-opacity:1"
       d="m 116.66565,105.73094 0.0178,-10.587 h -5.15586 v 7.41256 l -6.7334,-0.0173 v -7.39521 h -5.772876 v 10.587 z"
       id="path5859-0-8"
       inkscape:connector-curvature="0"
       sodipodi:nodetypes="ccccccccc" />
    <path
       style="fill:none;stroke:#0000ff;stroke-width:0.20304769px;stroke-linecap:butt;stroke-linejoin:miter;stroke-opacity:1"
       d="m 149.4742,105.73094 0.0178,-10.587 h -5.15587 v 7.41256 l -6.7334,-0.0173 v -7.39522 h -5.77288 v 10.587 z"
       id="path5859-8-1-6"
       inkscape:connector-curvature="0"
       sodipodi:nodetypes="ccccccccc" />
    <rect
       style="opacity:1;fill:none;fill-opacity:0.48627451;stroke:#0000ff;stroke-width:0.249;stroke-linecap:butt;stroke-miterlimit:4;stroke-dasharray:none;stroke-dashoffset:0;stroke-opacity:1"
       id="rect4565"
       width="30.201456"
       height="14.432558"
       x="-19.225729"
       y="90.41642"
       ry="0" />
  </g>
</svg>
